<?xml version="1.0" encoding="utf-8"?>
<!-- Generator: Adobe Illustrator 16.0.0, SVG Export Plug-In . SVG Version: 6.00 Build 0)  -->
<!DOCTYPE svg PUBLIC "-//W3C//DTD SVG 1.0//EN" "http://www.w3.org/TR/2001/REC-SVG-20010904/DTD/svg10.dtd">
<svg version="1.0" id="Layer_1" xmlns="http://www.w3.org/2000/svg" xmlns:xlink="http://www.w3.org/1999/xlink" x="0px" y="0px"
	 width="100px" height="100px" viewBox="0 0 100 100" enable-background="new 0 0 100 100" xml:space="preserve">
<path d="M50,10c-9.204,0-16.667,7.461-16.667,16.667c0,9.206,7.462,16.667,16.667,16.667c9.199,0,16.667-7.461,16.667-16.667
	C66.667,17.461,59.199,10,50,10z"/>
<path d="M10,60v23.333h10V66.348c19.557-8.431,40.481-8.438,60-0.022v17.008h10V59.98C63.34,46.152,34.72,47.197,10,60z"/>
<path d="M73.333,70.853V90H26.667V70.872C41.979,65.325,58.047,65.315,73.333,70.853z"/>
</svg>
