<svg xmlns="http://www.w3.org/2000/svg" viewBox="0 0 48 48"><title>push pin</title><g id="push_pin" data-name="push pin"><path d="M47.71,17.18,31.89,1.37a1,1,0,0,0-1.41,0L29,2.81a3,3,0,0,0-.46,3.67A21,21,0,0,1,17,16.75a4.06,4.06,0,0,0-5.2.43L9.64,19.34a1,1,0,0,0,0,1.41l7.2,7.2L.29,44.5a1,1,0,0,0,.57,1.69c5.48.79,5.06.73,5.17.73.6,0-.62,1,15.1-14.68,7.76,7.77,7.32,7.49,7.9,7.49s.52-.1,2.86-2.44a4,4,0,0,0,.44-5.2A20.89,20.89,0,0,1,42.6,20.5,3,3,0,0,0,46.27,20l1.44-1.44A1,1,0,0,0,47.71,17.18Zm-42,27.68L3.12,44.5,18.25,29.37l1.46,1.46Zm24.8-9L29,37.32,11.76,20.05l1.45-1.45a2.05,2.05,0,0,1,2.9,0L30.48,33A2.05,2.05,0,0,1,30.48,35.87Zm.32-5.41L18.62,18.28A22.9,22.9,0,0,0,30,8.07l11,11A22.9,22.9,0,0,0,30.8,30.46ZM44.86,18.62a1.05,1.05,0,0,1-1.47,0L30.46,5.68a1,1,0,0,1,0-1.46l.73-.73,14.4,14.4Z"/></g></svg>